<svg xmlns="http://www.w3.org/2000/svg" viewBox="0 0 1000 563" width="1000" height="563">
	<style>
		tspan { white-space:pre }
		.shp0 { fill: #fdfdfd } 
	</style>
	<path id="Path 0" class="shp0" d="M460,116.67c10.18,0.3 18.84,0.72 19.25,0.94c0.41,0.22 0.75,4.67 0.75,19.39h-40l-0.55,3.75c-0.3,2.06 -1.24,6.45 -2.09,9.75c-0.85,3.3 -2.96,8.92 -4.7,12.49c-1.85,3.81 -5.64,9.04 -9.16,12.66c-4.19,4.31 -8.11,7.15 -13,9.44c-3.85,1.8 -10.66,3.98 -23.28,6.41l-0.61,5c-0.34,2.75 -0.9,31.32 -1.25,63.5c-0.44,40.31 -0.27,64.87 0.55,79c0.65,11.27 1.61,22.19 2.14,24.25c0.63,2.46 0.61,3.92 -0.05,4.25c-0.55,0.27 -2.53,-1.41 -4.4,-3.75c-1.87,-2.34 -4.84,-6.73 -6.61,-9.75c-1.77,-3.02 -4.71,-9.1 -6.53,-13.5c-1.82,-4.4 -4.35,-12.73 -5.62,-18.5c-2.23,-10.13 -2.3,-11.95 -2.11,-52c0.11,-22.82 0.44,-52.86 1.27,-92l8.25,-0.01c4.54,-0.01 11.06,-0.68 14.5,-1.5c3.44,-0.82 7.94,-2.34 10,-3.39c2.06,-1.05 5.65,-3.41 7.97,-5.25c2.32,-1.84 6.06,-5.82 8.31,-8.85c2.25,-3.03 4.99,-7.97 6.1,-11c1.11,-3.03 2.77,-10.18 3.69,-15.9c1.65,-10.23 1.73,-10.43 5.18,-12.26c1.93,-1.03 5.75,-2.28 8.5,-2.79c2.75,-0.51 13.32,-0.68 23.5,-0.38zM499.5,116.07c0.55,-0.02 2.8,0.79 5,1.79c2.2,1 4.55,2.45 5.23,3.23c0.68,0.77 1.52,2.98 1.87,4.91c0.43,2.34 0.1,4.58 -0.98,6.75c-1.2,2.42 -2.83,3.67 -6.37,4.91c-3.9,1.36 -5.42,1.45 -8.5,0.5c-2.06,-0.64 -4.67,-2.39 -5.78,-3.91c-1.12,-1.51 -2.02,-4.21 -2,-6c0.02,-1.79 0.6,-4.39 1.28,-5.79c0.69,-1.4 3.05,-3.4 5.25,-4.45c2.2,-1.05 4.45,-1.92 5,-1.94zM548.5,118.38c18.34,0.12 19.16,0.21 23.5,2.64c4.44,2.48 4.51,2.61 5.22,9c0.4,3.56 1.26,8.96 1.9,11.98c0.65,3.03 2.65,8.43 4.45,12c2,3.97 5.54,8.68 9.1,12.09c3.2,3.08 7.62,6.52 9.82,7.65c2.2,1.13 6.7,2.84 10,3.8c3.58,1.04 9.73,1.79 24.5,1.96l-0.01,20c0,11 0.5,37.78 1.11,59.5c1.01,35.63 0.95,40.72 -0.59,52c-0.94,6.88 -2.79,16.21 -4.11,20.75c-1.32,4.54 -4.16,11.74 -6.29,16c-2.14,4.26 -5.96,10.56 -8.5,14c-2.54,3.44 -5.18,6.26 -5.86,6.27c-0.93,0.01 -1.04,-1.07 -0.44,-4.25c0.45,-2.35 1.27,-9.44 1.82,-15.77c0.56,-6.34 0.95,-36.85 0.87,-68c-0.08,-31.07 -0.45,-63.45 -1.51,-87.37l-8,-1.36c-4.67,-0.79 -11.02,-2.8 -15.25,-4.82c-5.05,-2.41 -9.1,-5.35 -13.36,-9.71c-3.96,-4.05 -7.28,-8.71 -9.43,-13.25c-1.82,-3.85 -4.01,-9.7 -4.87,-13c-0.86,-3.3 -1.56,-7.24 -1.59,-11.5h-40v-20l4.25,-0.37c2.34,-0.2 12.8,-0.32 23.25,-0.25zM501.15,155.99c0.74,0 4.28,1.68 7.85,3.75c3.58,2.07 9.89,7.13 14.03,11.26c5.47,5.45 8.64,9.69 11.6,15.5c2.24,4.4 4.7,10.57 5.47,13.71c0.77,3.14 1.07,5.95 0.65,6.25c-0.41,0.3 -2.21,-0.21 -4,-1.12c-1.79,-0.91 -5.12,-1.7 -7.42,-1.75c-2.85,-0.06 -5.14,0.62 -7.25,2.16c-1.7,1.24 -3.32,1.91 -3.61,1.5c-0.29,-0.41 -0.51,-3.45 -0.5,-6.75c0.02,-3.3 -0.87,-9.26 -1.97,-13.25c-1.1,-3.99 -3.19,-9.61 -4.64,-12.5c-1.45,-2.89 -4.28,-7.72 -6.29,-10.75c-2.01,-3.03 -4.01,-6.06 -4.46,-6.75c-0.51,-0.79 -0.31,-1.25 0.54,-1.26zM466.31,161.01c0.65,0.01 4.63,5.29 8.83,11.75c4.2,6.46 9.23,14.67 11.17,18.24c1.94,3.57 4.07,8.3 4.75,10.5c0.67,2.2 0.94,4.79 0.58,5.75c-0.6,1.63 -0.89,1.64 -4.39,0.16c-2.17,-0.92 -5.02,-1.35 -6.75,-1.03c-1.65,0.31 -5.02,1.97 -7.5,3.69c-3.49,2.43 -4.66,2.83 -5.23,1.78c-0.4,-0.74 -1.5,-4.73 -2.45,-8.85c-1.06,-4.63 -1.74,-11.9 -1.77,-19c-0.03,-6.32 0.31,-14.09 0.76,-17.25c0.47,-3.32 1.32,-5.75 2,-5.74zM551.25,167.97c0.69,-0.01 3.95,1.71 7.25,3.83c3.3,2.12 8.67,6.74 11.93,10.28c3.26,3.53 8.27,10.02 11.13,14.42c2.86,4.4 6.6,10.81 8.32,14.25c1.72,3.44 2.9,6.47 2.62,6.75c-0.27,0.28 -1.74,-0.36 -3.25,-1.41c-1.51,-1.05 -4.77,-2.45 -7.25,-3.12c-3.19,-0.86 -5.38,-0.91 -7.5,-0.19c-1.65,0.56 -3.79,1.29 -4.75,1.62c-1.4,0.48 -1.88,-0.14 -2.38,-3.15c-0.35,-2.06 -2.37,-8.14 -4.5,-13.5c-2.13,-5.36 -5.9,-14.14 -8.39,-19.5c-2.49,-5.36 -4.51,-9.86 -4.5,-10c0.01,-0.14 0.58,-0.26 1.27,-0.28zM430.45,184.5l0.65,9.5c0.37,5.33 1.98,14.54 3.69,21c1.67,6.32 3.41,12.34 3.87,13.38c0.76,1.7 0.51,1.81 -2.67,1.16c-2.25,-0.46 -4.75,-0.21 -7,0.69c-1.93,0.77 -4.85,3.12 -6.5,5.21c-2.63,3.34 -3.08,3.58 -3.68,1.94c-0.37,-1.03 -0.71,-5.7 -0.76,-10.37c-0.04,-4.68 0.42,-11.2 1.02,-14.5c0.6,-3.3 2.4,-9.37 4,-13.5c1.6,-4.12 3.91,-9.07 5.14,-11M534.5,211.05c1.65,0.01 3.92,0.79 5.04,1.73c1.12,0.94 3.42,3.74 5.11,6.22c1.69,2.47 4.11,6.53 5.37,9c1.58,3.1 2.28,6.21 2.27,10c-0.01,3.42 -0.85,7.39 -2.21,10.5c-1.2,2.75 -3.17,6.02 -4.38,7.28c-1.41,1.47 -3.35,2.27 -5.44,2.25c-2.13,-0.02 -4.67,-1.15 -7.36,-3.28c-2.7,-2.14 -5.16,-5.48 -7.19,-9.75c-2.81,-5.94 -3.03,-7.11 -2.49,-13.5c0.37,-4.44 1.58,-9.18 3.31,-12.97c1.5,-3.28 3.23,-6.31 3.85,-6.73c0.62,-0.42 2.48,-0.76 4.13,-0.75zM485.2,211.99c0.71,0 2.42,0.74 3.8,1.65c1.38,0.91 4.23,3.28 6.34,5.26c2.11,1.98 5,5.85 6.43,8.6c2.03,3.92 2.58,6.4 2.55,11.5c-0.03,3.76 -0.76,8.19 -1.73,10.5c-0.93,2.2 -2.68,5.02 -3.88,6.28c-1.33,1.38 -3.38,2.27 -5.19,2.27c-1.65,0 -5.7,-1.35 -9,-3c-3.57,-1.78 -6.89,-4.32 -8.2,-6.27c-1.21,-1.8 -2.67,-5.41 -3.25,-8.03c-0.72,-3.23 -0.73,-6.19 -0.05,-9.25c0.55,-2.47 2.08,-6.64 3.4,-9.25c1.32,-2.61 3.55,-5.99 4.95,-7.5c1.41,-1.51 3.14,-2.75 3.85,-2.76zM579.2,218.98c0.71,-0.01 2.98,0.66 5.05,1.5c2.06,0.84 5.21,2.82 7,4.39c1.79,1.58 4.6,5.52 6.25,8.75c2.54,4.99 3,7.02 3,13.38c0,4.13 -0.34,8.74 -0.75,10.25c-0.51,1.86 -1.64,2.98 -3.5,3.45c-1.51,0.39 -4.4,0.72 -6.41,0.75c-2.64,0.04 -4.73,-0.81 -7.5,-3.04c-2.11,-1.7 -5.53,-5.3 -7.59,-8c-3.5,-4.59 -3.74,-5.36 -3.74,-11.91c0,-3.85 0.51,-8.8 1.14,-11c0.63,-2.2 2.18,-5.01 3.45,-6.25c1.27,-1.24 2.89,-2.26 3.6,-2.27zM434,234.96c0.27,-0.01 2.07,1 4,2.26c2.25,1.46 4.56,4.43 6.47,8.28c1.85,3.74 3.12,8.07 3.37,11.5c0.31,4.25 -0.11,6.52 -1.84,10c-1.23,2.48 -3.2,5.52 -4.37,6.78c-1.31,1.39 -3.3,2.27 -5.14,2.27c-2.18,-0.01 -4.1,-1.12 -11,-8.14l0,-9.7c0,-6.57 0.57,-11.4 1.75,-14.95c0.97,-2.9 2.76,-5.93 4,-6.76c1.24,-0.83 2.48,-1.52 2.75,-1.53zM403.23,240.59c0.54,0.29 0.94,1.96 0.88,3.72c-0.05,1.76 1.06,5.67 2.47,8.69c1.41,3.02 3.65,6.96 7.42,12l-4.31,4.25c-2.37,2.34 -5.49,5.82 -9.57,11.25l-0.5,-2.5c-0.28,-1.37 -1.05,-6.1 -1.73,-10.5c-1.08,-7.03 -1.01,-8.91 0.57,-15.5c0.99,-4.12 2.25,-8.5 2.79,-9.72c0.55,-1.22 1.43,-1.98 1.97,-1.69zM561.21,253c0.44,0 3.27,3.15 6.29,7c3.02,3.85 6.63,7.45 8,8c1.38,0.55 5.54,1.01 9.25,1.03c4.79,0.02 7.62,0.57 9.75,1.89c1.65,1.02 3.54,3.14 4.2,4.72c0.66,1.57 1.27,3.99 1.36,5.36c0.09,1.38 0.11,5.09 -0.06,14h-83.5c-45.93,0 -83.51,-0.34 -83.53,-0.75c-0.01,-0.41 3.25,-2.99 7.25,-5.74c4,-2.74 10.88,-8.59 15.29,-13c5.04,-5.04 9.21,-10.33 11.25,-14.26c1.78,-3.44 3.57,-6.24 3.99,-6.22c0.41,0.02 2.1,1.39 3.75,3.05c1.65,1.66 5.02,3.98 7.5,5.15c2.48,1.17 6.3,2.33 8.5,2.58c2.2,0.25 5.8,-0.13 8,-0.85c2.2,-0.71 6.36,-3.47 14.5,-10.96l4.25,3.42c2.34,1.88 6.73,4.58 9.75,5.99c3.69,1.72 7.23,2.57 10.75,2.58c3.15,0.01 6.95,-0.78 9.5,-1.97c2.34,-1.09 6.26,-4.01 8.71,-6.5c2.45,-2.49 4.81,-4.52 5.25,-4.52zM414,277.25c3.23,0.23 3.78,0.78 7.22,7.25c2.05,3.85 3.73,7.56 3.75,8.25c0.02,0.94 -3.12,1.25 -12.47,1.25c-6.87,0 -12.5,-0.34 -12.49,-0.75c0,-0.41 2.37,-4.24 5.25,-8.5c5,-7.38 5.41,-7.74 8.74,-7.5zM398,305h22c12.1,0 22.74,0.34 23.64,0.75c0.9,0.41 2.25,1.99 3,3.5c0.75,1.51 1.36,5.68 1.36,9.25c0,3.57 -0.49,7.51 -1.08,8.75c-0.78,1.62 -0.78,2.53 0.02,3.25c0.64,0.58 1.09,4.64 1.08,9.75c-0.02,8.31 -0.16,8.9 -5.86,14.75h-44.15v-25M407.02,320.48l-0.02,3.52l32.5,-0.5v-6l-32.45,-0.55M407.02,338.48l-0.02,3.52h33l-0.5,-6.5l-32.45,-0.55M498,305v12h-37v6h37v13h-37v6h17.5c9.63,0 18.18,0.23 19,0.5c1.11,0.37 1.5,2.06 1.5,12.5h-20.5c-20.24,0 -20.54,-0.03 -26,-4.82l-0.32,-17.34c-0.17,-9.54 -0.06,-18.8 0.25,-20.59c0.31,-1.79 1.47,-4.15 2.57,-5.25c1.87,-1.87 3.33,-2 43,-2zM526.53,305c4.93,0 7.72,0.43 8.19,1.25c0.39,0.69 4.6,11.6 9.35,24.25c4.75,12.65 8.47,23.34 8.28,23.75c-0.19,0.41 -2.37,0.75 -4.85,0.75c-4.41,0 -4.53,-0.09 -8,-9.07h-26l-3.5,9.07h-5c-2.75,0 -5,-0.23 -5,-0.5c0,-0.27 3.86,-10.74 8.58,-23.25c4.72,-12.51 9.01,-23.54 9.53,-24.5c0.77,-1.43 2.33,-1.75 8.42,-1.75zM520.57,325.25c-1.41,3.71 -2.57,6.98 -2.57,7.25c0,0.27 3.83,0.5 8.5,0.5h8.5c-5.32,-14.35 -6.12,-15.55 -8.26,-15.81c-1.38,-0.17 -2.76,0.06 -3.06,0.5c-0.3,0.44 -1.7,3.84 -3.11,7.56zM555,305h21.5c11.83,0 22.24,0.34 23.14,0.75c0.9,0.41 2.25,1.99 3,3.5c0.78,1.58 1.36,5.95 1.36,10.25c0,5.33 -0.51,8.37 -1.75,10.51c-1.09,1.87 -3.17,3.48 -9.24,5.49l5.94,9c3.27,4.95 5.74,9.34 5.5,9.75c-0.25,0.41 -2.7,0.75 -10.45,0.75l-13,-20h-18v20h-8v-25M563.02,320.48l-0.02,3.52l32.5,-0.5v-6l-32.45,-0.55M484.71,370h29.29l0.5,7.25c0.28,3.99 0.58,14.45 0.68,23.25c0.18,15.68 0.12,16.19 -3.08,25.5c-1.8,5.23 -4.32,11.3 -5.61,13.5c-1.29,2.2 -3.28,4.79 -4.42,5.75c-2.01,1.7 -2.15,1.65 -4.46,-1.5c-1.31,-1.79 -3.56,-5.61 -5,-8.5c-1.44,-2.89 -3.55,-8.51 -4.69,-12.5c-1.72,-6 -2.17,-11.16 -2.65,-30M393.95,372l24.55,-0.03l0.76,5.76c0.42,3.17 2.03,8.46 3.59,11.76c1.91,4.05 4.75,7.74 8.74,11.35c3.25,2.94 8.61,6.63 11.91,8.2c3.3,1.56 9.82,3.74 14.5,4.84c4.68,1.1 12.22,2.36 25.02,3.61l0,19l-7.26,-0.81c-3.99,-0.44 -11.54,-1.66 -16.76,-2.71c-5.23,-1.05 -13.44,-3.49 -18.25,-5.44c-4.81,-1.95 -11.56,-5.29 -15,-7.44c-3.44,-2.14 -9.62,-7.45 -13.75,-11.8c-5.1,-5.37 -8.67,-10.28 -11.15,-15.35c-2.01,-4.1 -4.1,-9.25 -4.65,-11.45c-0.55,-2.2 -1.28,-5.24 -1.62,-6.75M581.24,372h23.76l0.01,2.75c0.01,1.51 -0.71,5.23 -1.6,8.25c-0.88,3.02 -3.25,8.65 -5.26,12.5c-2.13,4.07 -6.58,10.07 -10.65,14.34c-3.85,4.04 -9.7,9.04 -13,11.12c-3.3,2.08 -8.7,4.91 -12,6.3c-3.3,1.39 -8.48,3.26 -11.5,4.16c-3.02,0.9 -9.55,2.29 -14.5,3.1c-4.95,0.81 -10.91,1.47 -17.5,1.48v-19l6.25,0.01c3.44,0.01 10.52,-1.06 15.75,-2.36c5.23,-1.31 12.17,-3.68 15.44,-5.26c3.27,-1.59 8.39,-5.14 11.39,-7.89c3,-2.75 6.72,-7.25 8.28,-10c1.71,-3.01 3.29,-7.88 3.98,-12.25" />
</svg>