<svg xmlns="http://www.w3.org/2000/svg" viewBox="0 0 1000 563" width="1000" height="563">
	<style>
		tspan { white-space:pre }
		.shp0 { fill: #fefefe } 
	</style>
	<path id="Path 0" class="shp0" d="M426.93,122.06c0.99,-0.04 1.57,1.4 1.88,4.69c0.24,2.61 0.24,7.45 -0.01,10.75c-0.36,4.78 -1.16,7.01 -3.93,11c-3.21,4.63 -3.53,5.75 -4.17,15c-0.38,5.5 -0.69,21.14 -0.7,59.5l28.86,9.5l2.1,-2c1.95,-1.85 2.1,-3.04 2.07,-16c-0.02,-7.7 0.27,-23.68 1.33,-57l27.14,-28.43l53.5,-0.07l24.94,23.5l0.03,7.25c0.02,4.81 -0.39,7.47 -1.22,7.91c-0.72,0.38 -2.1,-0.44 -3.25,-1.93c-1.64,-2.12 -3.21,-2.74 -15.37,-4.23l3.19,3.25c2.9,2.96 3.54,3.18 11.02,1.75l-0.76,5c-0.42,2.75 -1.17,5.79 -1.67,6.75c-0.72,1.39 -2.22,1.75 -13.9,1.75l-2.66,4.25c-1.46,2.34 -2.7,4.78 -2.75,5.42c-0.05,0.65 7,9.31 15.66,19.25c9.27,10.64 16.47,18.07 17.5,18.06c0.96,-0.01 4.08,-0.79 12.12,-3.49l0.65,-13c0.36,-7.15 0.5,-22.9 -0.02,-57l-3.72,-5.5c-3.61,-5.33 -3.72,-5.77 -3.73,-14.5c-0.01,-4.95 0.39,-9.67 0.88,-10.5c0.76,-1.27 1.4,-1.31 4.23,-0.23c1.84,0.7 10.65,1.94 19.59,2.75c8.94,0.81 16.9,1.82 17.69,2.23c0.79,0.41 8.27,6.82 16.61,14.25c8.34,7.43 15.57,14.29 16.06,15.25c0.49,0.96 0.89,23.13 0.89,49.25c0,26.13 -0.23,48.18 -0.5,49c-0.41,1.22 -2.67,1.5 -12,1.5c-9.33,0 -11.59,-0.28 -12,-1.5c-0.27,-0.82 -0.5,-21.3 -0.5,-89.5l-15.5,-14.03l-1.28,3.26c-0.97,2.49 -1.27,14.9 -1.22,101.76h-24l-0.12,-3.75c-0.07,-2.06 -0.11,-3.97 -0.11,-4.25c0.01,-0.28 -2.93,0.18 -6.53,1c-5.68,1.3 -6.65,1.86 -7.39,4.25c-0.85,2.75 -0.87,2.75 -19.85,2.75v-21l-19.5,-22.38l-0.5,43.38h-26v-54l-19.93,22.5l-0.07,31.5l-13.75,-0.02c-13.05,-0.02 -14.57,-0.24 -45.75,-8.68l-0.5,8.7h-24l-0.11,-22.25c-0.06,-12.24 -0.4,-35.17 -0.75,-50.95c-0.47,-21.03 -0.98,-29.05 -1.9,-30c-1.03,-1.06 -2.67,0.1 -16.44,13.7l0.5,43.5c0.27,23.93 0.21,44.07 -0.15,44.76c-0.47,0.92 -3.71,1.19 -23.65,0.74l-0.5,-99.5l14.75,-13.3c8.11,-7.32 15.88,-14.05 17.25,-14.97c1.78,-1.19 7.33,-2.11 19.25,-3.2c9.21,-0.84 17.76,-1.95 19,-2.47c1.24,-0.52 2.89,-0.97 3.68,-1zM516.25,144.88c1.95,1.5 3.55,1.94 5.5,1.51c2.49,-0.55 2.56,-0.68 0.75,-1.37c-1.1,-0.42 -3.58,-1.1 -5.5,-1.51l-3.5,-0.75M361.17,263c4.3,0 5.97,0.4 6.33,1.5c0.27,0.82 0.5,10.95 0.5,43.5h40l0.5,-44.5l6.25,-0.25c5.75,-0.23 6.29,-0.07 6.81,2c0.31,1.24 0.42,12.82 0.25,25.75c-0.26,20.09 -0.56,23.97 -2.06,26.75c-0.96,1.79 -3.1,3.93 -4.75,4.75c-2.47,1.24 -7.46,1.46 -28.4,1.25c-23.79,-0.23 -25.54,-0.38 -27.64,-2.25c-1.23,-1.1 -2.85,-3.46 -3.6,-5.25c-1.01,-2.4 -1.41,-9.63 -1.53,-27.58c-0.09,-13.38 0.21,-24.63 0.67,-25c0.46,-0.37 3.46,-0.67 6.67,-0.67zM495,263l-0.5,16.5l-49.5,0.5v5l20.25,0.02c17.27,0.02 20.84,0.29 24.25,1.81c3.04,1.36 4.42,2.8 5.75,5.98c1.17,2.79 1.74,6.78 1.73,11.94c-0.02,5.59 -0.57,8.94 -2,12c-1.19,2.56 -3.17,4.85 -4.98,5.75c-2.44,1.22 -8,1.5 -30,1.5c-23.11,0 -27.07,-0.22 -27.5,-1.5c-0.27,-0.82 -0.5,-3.75 -0.5,-6.5c0,-2.75 0.23,-5.68 0.5,-6.5c0.43,-1.28 4.17,-1.5 50.5,-1.5v-6h-20.5c-15.04,0 -21.37,-0.36 -23.75,-1.36c-1.79,-0.75 -4.15,-2.37 -5.25,-3.6c-1.69,-1.89 -2.05,-3.91 -2.29,-12.89c-0.24,-8.68 0.04,-11.3 1.5,-14.15c1.01,-1.97 3.33,-4.27 5.29,-5.25c3.07,-1.53 6.79,-1.75 57,-1.75zM570,263l-0.5,16.5l-49.5,0.5v5l23.75,0.02c13.06,0.01 24.32,0.35 25.02,0.75c0.89,0.51 1.19,2.99 0.73,15.73l-49.5,0.5v6h25c21.33,0 25.07,0.22 25.5,1.5c0.27,0.82 0.5,3.75 0.5,6.5c0,2.75 -0.23,5.68 -0.5,6.5c-0.43,1.28 -4.41,1.5 -27.75,1.5c-25.48,0 -27.46,-0.13 -30.5,-2c-1.79,-1.1 -3.93,-3.57 -4.75,-5.5c-1.16,-2.72 -1.5,-7.91 -1.5,-23.25c0,-16.8 0.26,-20.27 1.75,-23.25c1,-2 3.25,-4.25 5.25,-5.25c3.07,-1.53 6.79,-1.75 57,-1.75zM645,263l-0.5,16.5l-51.5,0.5l0.5,27.5l25.5,0.28c18.68,0.21 25.7,0.61 26.23,1.5c0.4,0.67 0.74,3.58 0.75,6.47c0.01,2.89 -0.21,5.93 -0.48,6.75c-0.43,1.29 -4.5,1.5 -28.5,1.5c-22.89,0 -28.55,-0.27 -31,-1.5c-1.65,-0.82 -3.79,-2.96 -4.75,-4.75c-1.43,-2.66 -1.81,-6.45 -2.08,-20.75c-0.18,-9.62 -0.07,-19.41 0.25,-21.75c0.32,-2.34 1.71,-5.64 3.1,-7.34c1.39,-1.7 3.52,-3.47 4.75,-3.94c1.23,-0.46 14.72,-0.87 57.73,-0.97zM366.5,328.05c5.5,-0.01 10.54,0.32 11.19,0.72c0.69,0.43 1.32,3.79 1.81,15.39l59.75,31.92c32.86,17.56 60.31,31.91 61,31.9c0.69,-0.01 17.45,-8.63 37.25,-19.15c19.8,-10.52 40.73,-21.7 46.5,-24.84c5.77,-3.14 16.69,-8.92 38,-19.99v-7.5c0,-5.78 0.34,-7.61 1.5,-8c0.83,-0.27 5.89,-0.49 11.25,-0.48c5.36,0.01 10.31,0.35 11,0.75c0.94,0.55 1.19,4.96 0.75,34.52l-21.5,11.46c-11.83,6.3 -29.83,15.88 -40,21.29c-10.17,5.41 -33.35,17.76 -84.5,45.05l-6.5,-3.43c-3.57,-1.88 -20.68,-10.96 -38,-20.17c-17.32,-9.21 -41.85,-22.25 -54.5,-28.98c-12.65,-6.73 -28.74,-15.22 -48.5,-25.51l-0.17,-16.45c-0.16,-15.3 -0.04,-16.52 1.75,-17.47c1.06,-0.56 6.42,-1.03 11.92,-1.03zM412.75,328.03c8.39,-0.02 15.93,0.19 16.75,0.47c1.25,0.42 1.5,3.22 1.5,17c0,10 -0.39,16.7 -1,17c-0.55,0.27 -8.87,-3.32 -36,-16.5l-0.17,-7.95c-0.15,-6.92 0.08,-8.08 1.75,-8.97c1.06,-0.56 8.78,-1.03 17.17,-1.05zM457,328.09c8.52,-0.04 16.02,0.27 16.65,0.67c0.79,0.5 1.42,9.49 2,28.49c0.8,26.09 0.74,27.75 -0.9,27.75c-0.96,0 -9.4,-3.83 -35.75,-17l-0.2,-19.42c-0.17,-16.19 0.04,-19.5 1.25,-19.92c0.8,-0.28 8.43,-0.53 16.95,-0.57zM500.57,328c7.94,0 15.1,0.23 15.93,0.5c1.29,0.43 1.5,4.78 1.5,61.5l-17.5,8.18l-17,-8.68l-0.34,-29.16c-0.31,-26.17 -0.17,-29.33 1.32,-30.75c1.36,-1.3 4.28,-1.59 16.09,-1.59zM543.57,328c8.49,0 16.1,0.23 16.93,0.5c1.26,0.42 1.5,3.56 1.5,39.5l-17.5,8.5c-9.62,4.68 -17.95,8.27 -18.5,8c-0.63,-0.31 -1.03,-10.38 -1.07,-26.93c-0.06,-23.27 0.12,-26.62 1.57,-28c1.35,-1.29 4.41,-1.57 17.07,-1.57zM588.07,328c12.83,0 16.22,0.29 17.43,1.5c1.01,1.01 1.51,3.55 1.52,7.75c0.01,3.49 -0.54,7.02 -1.25,7.99c-0.7,0.96 -8.69,5.35 -17.77,9.76c-13.34,6.48 -16.75,7.78 -17.79,6.76c-0.94,-0.92 -1.3,-5.27 -1.32,-15.94c-0.02,-12.33 0.24,-14.93 1.62,-16.25c1.35,-1.29 4.45,-1.57 17.57,-1.57z" />
</svg>